<svg xmlns="http://www.w3.org/2000/svg" viewBox="0 0 860 470" font-family="-apple-system, 'Segoe UI', Roboto, Helvetica, Arial, sans-serif">
  <defs>
    <filter id="sh" x="-20%" y="-20%" width="140%" height="140%">
      <feDropShadow dx="0" dy="3" stdDeviation="6" flood-color="#0f172a" flood-opacity="0.12"/>
    </filter>
  </defs>

  <rect x="10" y="10" width="840" height="450" rx="18" fill="#f8fafc" stroke="#e2e8f0" stroke-width="1.5"/>

  <!-- header -->
  <text x="430" y="56" text-anchor="middle" font-size="26" font-weight="700" fill="#0f172a">Spanish Travel Phrases</text>
  <text x="430" y="84" text-anchor="middle" font-size="15" fill="#2563eb">Card 1 of 10</text>
  <rect x="372" y="98" width="116" height="24" rx="12" fill="#eff6ff" stroke="#bfdbfe"/>
  <text x="430" y="114" text-anchor="middle" font-size="12" fill="#2563eb">3 due &#183; 7 new</text>

  <!-- front card -->
  <rect x="80" y="148" width="290" height="160" rx="14" fill="#ffffff" stroke="#cbd5e1" stroke-width="1.5" filter="url(#sh)"/>
  <text x="100" y="176" font-size="12" font-weight="700" letter-spacing="1.5" fill="#2563eb">FRONT</text>
  <text x="225" y="238" text-anchor="middle" font-size="20" fill="#0f172a">Where is the bathroom?</text>

  <!-- flip arrow -->
  <text x="430" y="216" text-anchor="middle" font-size="12" fill="#64748b">flip</text>
  <line x1="392" y1="230" x2="466" y2="230" stroke="#94a3b8" stroke-width="3"/>
  <polygon points="466,230 456,225 456,235" fill="#94a3b8"/>

  <!-- back card -->
  <rect x="490" y="148" width="290" height="160" rx="14" fill="#eff6ff" stroke="#bfdbfe" stroke-width="1.5" filter="url(#sh)"/>
  <text x="510" y="176" font-size="12" font-weight="700" letter-spacing="1.5" fill="#2563eb">BACK</text>
  <text x="635" y="238" text-anchor="middle" font-size="20" font-weight="600" fill="#0f172a">&#191;D&#243;nde est&#225; el ba&#241;o?</text>

  <!-- grade buttons -->
  <rect x="270" y="336" width="150" height="46" rx="10" fill="#dc2626"/>
  <text x="345" y="365" text-anchor="middle" font-size="17" font-weight="700" fill="#ffffff">Missed it</text>
  <rect x="440" y="336" width="150" height="46" rx="10" fill="#16a34a"/>
  <text x="515" y="365" text-anchor="middle" font-size="17" font-weight="700" fill="#ffffff">Got it</text>

  <!-- deck picker -->
  <rect x="150" y="408" width="128" height="26" rx="13" fill="none" stroke="#cbd5e1"/>
  <text x="214" y="425" text-anchor="middle" font-size="12" fill="#475569">World Capitals</text>
  <rect x="288" y="408" width="120" height="26" rx="13" fill="none" stroke="#cbd5e1"/>
  <text x="348" y="425" text-anchor="middle" font-size="12" fill="#475569">Spanish Basics</text>
  <rect x="418" y="408" width="116" height="26" rx="13" fill="none" stroke="#cbd5e1"/>
  <text x="476" y="425" text-anchor="middle" font-size="12" fill="#475569">Spanish Verbs</text>
  <rect x="544" y="408" width="180" height="26" rx="13" fill="#2563eb" stroke="#2563eb"/>
  <text x="634" y="425" text-anchor="middle" font-size="12" fill="#ffffff">Spanish Travel Phrases</text>
</svg>
